# xmcd CD database file
# Copyright (C) 1993-1998 Ti Kan
#
# Track frame offsets:
#  150
#  13387
#  27395
#  43915
#  62605
#  75205
#  89012
#  104932
#  117237
#  135312
#  146812
#  159650
#
# Disc length: 2333 seconds
#
# Revision: 1
# Processed by: cddbd v1.4b41PL1 Copyright (c) Steve Scherf et al.
# Submitted via: CDWizzard Release:4.35
#
DISCID=a9091b0c
DTITLE=New Vintage - No Time for the Blues
DYEAR=1900
DGENRE=
TTITLE0=No Answer Blues
TTITLE1=I Don't Worry About You Anymore
TTITLE2=Cheap Love Affair
TTITLE3=Gravestone
TTITLE4=Imprisoned By Her Memories
TTITLE5=Consider The Lillies
TTITLE6=Down in the Willow Garden
TTITLE7=Carolina Sweetheart
TTITLE8=Til I Gain Control Again
TTITLE9=Two More Years
TTITLE10=He's All These Things To Me
TTITLE11=Too Blue
EXTD=
EXTT0=
EXTT1=
EXTT2=
EXTT3=
EXTT4=
EXTT5=
EXTT6=
EXTT7=
EXTT8=
EXTT9=
EXTT10=
EXTT11=
PLAYORDER=
